<?xml version="1.0" encoding="UTF-8"?>
<svg id="Layer_1" data-name="Layer 1" xmlns="http://www.w3.org/2000/svg" viewBox="0 0 278.4574058 278.457019">
  <defs>
    <style>
      .cls-1 {
        fill: #398fe5;
      }
    </style>
  </defs>
  <path class="cls-1" d="M139.2287029,0H0v139.2287029c0,76.8936352,62.3346809,139.2283161,139.2287029,139.2283161h0c76.894022,0,139.2287029-62.3346809,139.2287029-139.2283161v-.0003868C278.4574058,62.3346809,216.1227249,0,139.2287029,0ZM200.5898215,212.9595174c-16.3838519,13.9253845-37.4719014,22.3149625-60.491604,22.3149625-52.0142235,0-94.1961246-42.7895556-94.4065409-95.6512464-.0003868-.1322838-.0096699-.2622468-.0096699-.3945306,0-.1516235.0104435-.3009263.011217-.4525499.2401995-52.7657657,42.3002602-95.4764152,94.2019265-95.5885857.0680759,0,.1349914-.0054151.2030672-.0054151.4355309,0,.8648731.0278492,1.2988568.0332643.8439861.0116038,1.6856515.0309436,2.5238357.0649815.9178639.0394531,1.8353411.0943779,2.7520446.1593594.4254742.03017.8501749.0634343,1.2744887.0990195.9774303.0820005,1.9537003.173284,2.928423.2846809.4749839.0549249.9460999.1214536,1.4187631.1833407.8540428.1106233,1.7080856.2181522,2.559034.350436,17.4065372,2.779507,33.2252819,10.4032315,46.103613,21.4632405.9174771.7882877,1.8306995,1.5804433,2.7176199,2.402769l-26.959207,34.5090537c-8.8196938-9.5793587-21.0791533-15.5359978-34.6463658-15.580866-.6707021.0023208-1.3421778.0154718-2.014427.0464154-.4916161.0193397-.9809115.0487361-1.4686597.0835477-.3790589.0278492-.7577309.0556984-1.134469.0920571-2.0210025.2042276-4.0439391.5345503-6.0618473,1.002572-.2258881.0526041-.4510027.1098497-.6753436.1663217-.6679945.1678689-1.3301871.3496625-1.9873514.5461542-10.083739,3.0154518-18.8427061,9.3975652-25.152102,17.945729-5.0453507,7.2392505-8.3373608,16.078284-9.2420737,25.7450583-1.1619314,12.4184321,1.0424118,25.0712619,7.0795042,35.4992482,8.3238229,13.1943424,22.1559899,22.1014518,37.9793761,22.9616833.8463069.0363587,1.6926138.0781325,2.5369867.0688495.0104435,0,.0201133-.0007736.0305568-.0007736,5.5017685-.0657551,10.943197-1.1170632,16.1699544-2.9551119,7.7022438-2.8963191,14.5237559-7.7861782,19.9048444-14.1048572l27.0466226,34.6212242c-1.4570558,1.4071593-2.9477628,2.7787335-4.4910738,4.0899676Z"/>
</svg>
