<?xml version="1.0" encoding="UTF-8"?>
<svg id="Layer_1" data-name="Layer 1" xmlns="http://www.w3.org/2000/svg" viewBox="0 0 1920 193.0050773">
  <defs>
    <style>
      .cls-1 {
        fill: #398fe5;
      }
    </style>
  </defs>
  <path class="cls-1" d="M302.7179459,71.2645682c-7.5084596-18.036239-24.8879212-26.6826488-43.425833-25.2491874-17.5392078,1.356876-32.7100713,13.7760817-37.7442049,32.0877186-1.7036375,6.1964518-2.5296376,12.6946036-2.4638825,19.1169435-.0618872-6.4099625.7637262-12.8934161,2.4638825-19.0782641,5.0341336-18.3108633,20.2049972-30.730069,37.7442049-32.086945,18.5379118-1.4342349,35.9173733,7.2129484,43.425833,25.2491874,3.016999,7.24776,4.6473389,15.0594667,4.8256513,22.97174-.1736708-7.9254244-1.8036239-15.7510557-4.8256513-23.011193Z"/>
  <path class="cls-1" d="M261.0644064.8578677c-30.7559843.8679674-56.6921192,15.1352784-73.386954,40.9963752-29.0420967,44.9880969-16.6341081,119.6758417,40.2525689,142.9198852,49.8748618,20.3794416,106.5387449-4.2880066,121.7823259-58.9916139,5.7129584-20.5024423,5.5037024-40.8199968-.2564449-60.9147574C338.0404289,25.0410489,302.3311511-.307158,261.0644064.8578677ZM300.8872463,124.3126941c-8.8096371,17.7956527-27.4515967,24.8972042-46.3515484,21.7579781-23.6343194-3.9267403-35.2300391-25.9137008-35.4516725-48.8506293-.0657551-6.42234.7602451-12.9204917,2.4638825-19.1169435,5.0341336-18.3116369,20.2049972-30.7308426,37.7442049-32.0877186,18.5379118-1.4334613,35.9173733,7.2129484,43.425833,25.2491874,3.0220274,7.2601374,4.6519804,15.0857687,4.8256513,23.011193.2289825,10.1750226-1.9432568,20.5155933-6.6563508,30.0369328Z"/>
  <path class="cls-1" d="M254.5356979,146.0312191c-23.6207816-3.9244195-35.2172749-25.888946-35.4516725-48.8111762.2216334,22.9369285,11.8173531,44.923889,35.4516725,48.8506293,18.8999517,3.1392262,37.5419113-3.9623254,46.3515484-21.7579781,4.713094-9.5213395,6.8853333-19.8619102,6.6563508-30.0369328.2226004,10.1618716-1.9494455,20.4885177-6.6563508,29.9974798-8.8096371,17.7956527-27.4515967,24.8979778-46.3515484,21.7579781Z"/>
  <path class="cls-1" d="M1227.5159483,2.3764239c-31.4131485-5.8313176-71.5380751-2.4739392-90.1019022,27.6852208-7.1537688,11.6216349-10.8608097,25.6220576-10.8728003,39.815104l-.0862552,117.0642036h46.3376238l.3608795-112.0103434c.0684627-18.6752239,13.6333544-30.6968047,31.3373368-30.1204805,17.7801809.5786449,28.9376621,13.4581364,28.9430773,31.5407908l.0293964,110.5900331h46.9530143l-.548475-121.7529295c-.1636142-31.9778689-21.5197125-57.0878102-52.3518953-62.8115989Z"/>
  <path class="cls-1" d="M1046.3029964,118.0744684c-.0684627,18.6752239-13.6333544,30.6968047-31.3373368,30.1204805-17.7801809-.5786449-28.9376621-13.4581364-28.9430773-31.5407908l-.0293964-110.5900331h-46.9532077l.5486683,121.7529295c.1636142,31.9778689,21.5197125,57.0878102,52.3518953,62.8115989,31.4131485,5.8313176,71.5380751,2.4739392,90.1019022-27.6852208,7.1537688-11.6216349,10.8608097-25.6220576,10.8728003-39.815104l.0862552-117.0642036h-46.3376238l-.3608795,112.0103434Z"/>
  <path class="cls-1" d="M851.8024846,2.3764239c-23.6339326-4.7212167-52.5717881-3.4130768-71.8885112,13.2616447-7.5486863-6.5631333-16.7600098-11.1884248-27.135392-13.2616447-29.1896589-5.8313176-66.4747385-2.4739392-83.7246238,27.6852208-6.6474545,11.6216349-10.0920551,25.6220576-10.1030788,39.815104l-.0802599,117.0642036h43.0577978l.335351-112.0103434c.0638211-18.6752239,12.6684949-30.6968047,29.1194557-30.1204805,14.9623812.5244937,24.8484681,11.1543869,26.5905916,26.5836293.1814067,1.607519.3034405,3.250623.3040207,4.9571615l.0270756,110.5900331h42.6476019l.335351-112.0103434c.0040613-1.1851391.0607268-2.3416554.1636142-3.4718696,1.5173958-16.6770423,13.5486464-27.1878027,28.9556481-26.6486108,16.5217442.5786449,26.8893906,13.4581364,26.8944189,31.5407908l.0274624,110.5900331h43.6298672l-.5097955-121.7529295c-.1520103-31.9778689-19.9967082-57.0878102-48.646595-62.8115989Z"/>
  <path class="cls-1" d="M571.8744852,2.3764239c-23.6339326-4.7212167-52.5717881-3.4130768-71.8885112,13.2616447-7.5486863-6.5631333-16.7600098-11.1884248-27.135392-13.2616447-29.1896589-5.8313176-66.4747385-2.4739392-83.7246238,27.6852208-6.6474545,11.6216349-10.0920551,25.6220576-10.1030788,39.815104l-.0802599,117.0642036h43.0577978l.335351-112.0103434c.0638211-18.6752239,12.6684949-30.6968047,29.1194557-30.1204805,14.9623812.5244937,24.8484681,11.1543869,26.5905916,26.5836293.1814067,1.607519.3034405,3.250623.3040207,4.9571615l.0270756,110.5900331h42.6476019l.335351-112.0103434c.0040613-1.1851391.0607268-2.3416554.1636142-3.4718696,1.5173958-16.6770423,13.5486464-27.1878027,28.9556481-26.6486108,16.5217442.5786449,26.8893906,13.4581364,26.8944189,31.5407908l.0274624,110.5900331h43.6298672l-.5097955-121.7529295c-.1520103-31.9778689-19.9967082-57.0878102-48.646595-62.8115989Z"/>
  <path class="cls-1" d="M132.3520725,131.3662831c-5.3810885,6.318679-12.2024073,11.2085382-19.904651,14.1048572-5.2267574,1.8380486-10.6683793,2.8893568-16.1699544,2.9551119-.0104435,0-.0201133.0007736-.0305568.0007736-.8443729.0092831-1.6906798-.0324908-2.5369867-.0688495-15.823483-.8602315-29.6556499-9.7673409-37.9792794-22.9616833-6.0371891-10.4279864-8.2415324-23.0808161-7.0796009-35.4992482.9047129-9.6667743,4.196723-18.5058078,9.2421704-25.7450583,6.3092025-8.5481639,15.0680728-14.9302772,25.1520053-17.945729.6570676-.1964917,1.3192602-.3782853,1.987158-.5461542.2247277-.056472.4494555-.1137177.6753436-.1663217,2.0180049-.4680216,4.0410381-.7983444,6.0618473-1.002572.3767381-.0363587.7556035-.0642079,1.1346624-.0920571.4879416-.0348115.9770435-.0642079,1.4686597-.0835477.6722493-.0309436,1.3437249-.0440946,2.0142336-.0464154,13.5674059.0448682,25.8268654,6.0015073,34.6465592,15.580866l26.959207-34.5090537c-.8869204-.8223256-1.8001427-1.6144813-2.7176199-2.402769-12.8783311-11.060009-28.6968824-18.6837334-46.103613-21.4632405-.8509484-.1322838-1.7049912-.2398127-2.5588406-.350436-.4726632-.0618872-.944166-.1284159-1.4189565-.1833407-.9747228-.1113969-1.9511861-.2026804-2.928423-.2846809-.4243138-.0355851-.8490145-.0688495-1.2744887-.0990195-.9167035-.0649815-1.8339873-.1199064-2.7520446-.1593594-.8381842-.0340379-1.6798496-.0533777-2.5236423-.0649815-.4341771-.0054151-.8633259-.0332643-1.2990502-.0332643-.0680759,0-.1349914.0054151-.2030672.0054151C42.3113806.4176953.2515133,43.1283448.011217,95.8941105c-.0006769.1516235-.011217.3009263-.011217.4525499,0,.1322838.0092831.2622468.0097666.3945306.2104163,52.8616908,42.392124,95.6512464,94.4064442,95.6512464,23.0198959,0,44.1077521-8.389578,60.4917974-22.3149625,1.5431176-1.3112342,3.0338246-2.6828084,4.4908804-4.0899676l-27.046816-34.6212242Z"/>
  <polygon class="cls-1" points="1681.2070393 151.100551 1681.2070393 151.0812113 1681.1894402 112.041244 1748.8773604 112.0683196 1748.8773604 76.1745407 1681.1735816 76.1745407 1681.1608173 47.3281622 1681.1584966 42.3052456 1682.1599082 42.3052456 1682.160295 42.2866794 1752.8033271 42.2866794 1752.8033271 6.4632972 1721.8257094 6.452467 1681.1424446 6.4385423 1635.4627586 6.422297 1635.404546 6.422297 1635.4169235 42.2866794 1635.4285273 76.1582954 1635.4323953 87.9145349 1635.423499 112.0226778 1635.4088008 151.0657395 1635.4088008 151.0997775 1635.3954564 186.930122 1635.4660464 186.930122 1635.4538624 151.0997775 1635.5062731 186.930122 1753.0698286 186.9409522 1753.0822061 151.1067398 1681.2070393 151.1020982 1681.2070393 151.100551"/>
  <polygon class="cls-1" points="1554.1656587 186.9409522 1599.9880719 186.295005 1600.0607893 4.728136 1554.2294798 4.5579463 1554.1656587 186.9409522"/>
  <polygon class="cls-1" points="1316.9881486 186.9409522 1362.8105618 186.295005 1362.8832792 4.728136 1317.0519697 4.5579463 1316.9881486 186.9409522"/>
  <polygon class="cls-1" points="1482.170779 180.3453282 1482.170779 185.9345123 1482.1730997 185.9321915 1482.170779 180.3453282"/>
  <polygon class="cls-1" points="1392.4367186 43.1066843 1392.4367186 49.8454224 1435.4912286 49.8616677 1436.3700263 49.8624413 1436.3707998 52.2435498 1436.3800829 79.8452229 1436.404451 151.0703811 1436.4168284 186.9378579 1481.0761498 186.9409522 1481.0800178 186.9378579 1482.1692318 186.9378579 1482.170779 186.9378579 1482.170779 185.9345123 1482.168845 185.9368331 1482.1576279 151.0727018 1482.1259108 79.8452229 1482.1135333 52.2621159 1482.112373 49.8794603 1483.5423531 49.8802339 1484.2811311 49.8810075 1526.0917092 49.8964793 1526.0917092 42.8212298 1526.0917092 6.4470518 1392.4367186 6.4029572 1392.4367186 43.1066843"/>
  <path class="cls-1" d="M1918.8048019,124.7892252c-8.5350129-44.5572076-74.817321-45.7848941-83.4385891-64.7200441-1.7896993-3.9306082-1.002572-11.04299,2.165277-14.0414229,14.2727261-13.5084197,35.4559272.116812,48.4673157,11.3825958l29.290419-27.8940899s-17.859087-27.3556716-62.0403301-28.0549965c-.3918231-.0077359-.7832594-.0193397-1.1743088-.0224341-.1802464-.0007736-.35237-.0100567-.5337767-.0100567-.9267602,0-1.7881521.0177926-2.6197608.0440946-.2340108.0069623-.4676348.0162454-.7012589.0247549-.6931362.0286228-1.356876.0649815-1.9819363.1121705-18.332137,1.132535-35.5441164,8.2688981-47.0063919,21.731676-19.2341423,22.5919075-16.3799839,55.2567239,7.80165,72.4946185,27.0218678,19.2616048,64.1429464,23.131873,64.6210247,40.2189177.1334442,4.7715-2.4584674,10.4658922-7.1626651,12.6427731-18.5595723,8.5852962-37.2781173-3.6018327-52.2242531-18.2064287l-29.9251491,30.034612s22.5791433,30.7370313,69.1987405,30.7370313c.7151835,0,1.398263-.0085095,2.0534933-.0232077,20.0777417-.043321,39.5199796-6.2838674,52.5696608-19.7714003,11.9875428-12.3898093,16.1332089-28.4464328,12.6408391-46.6791636Z"/>
</svg>
